name rise31.4854peak64.571fall78.6902.mot
datacolumns 19
datarows 14
range 10.83829400000000 10.85996300000000
endheader
time	ground_force1_vx	ground_force1_vy	ground_force1_vz	ground_force1_px	ground_force1_py	ground_force1_pz	ground_force2_vx	ground_force2_vy	ground_force2_vz	ground_force2_px	ground_force2_py	ground_force2_pz	ground_torque1_x	ground_torque1_y	ground_torque1_z	ground_torque2_x	ground_torque2_y	ground_torque2_z	
10.83829400000000	-5.27335400000000	43.57971400000000	-9.96444500000000	0.30539500000000	0.00000000000000	0.09511700000000	-41.50204000000000	789.97418900000002	-50.13688700000000	0.13526900000000	0.00000000000000	-0.08036800000000	0.00000000000000	-6.52343500000000	0.00000000000000	0.00000000000000	-19.06482500000000	0.00000000000000	
10.83996000000000	-5.66780200000000	51.13470600000000	-11.20263700000000	0.31210000000000	0.00000000000000	0.09619900000000	-42.13389300000000	786.82253000000003	-49.69991200000000	0.13459100000000	0.00000000000000	-0.08023100000000	0.00000000000000	-7.45791100000000	0.00000000000000	0.00000000000000	-18.99524900000000	0.00000000000000	
10.84163100000000	-5.92955700000000	58.79889900000000	-12.32656200000000	0.31814700000000	0.00000000000000	0.09717600000000	-42.78630300000000	783.54939200000001	-49.24210200000000	0.13391400000000	0.00000000000000	-0.08009200000000	0.00000000000000	-8.34026900000000	0.00000000000000	0.00000000000000	-18.92724000000000	0.00000000000000	
10.84329800000000	-6.04328700000000	66.47444500000000	-13.30970300000000	0.32363700000000	0.00000000000000	0.09806700000000	-43.45871700000000	780.15381100000002	-48.76350100000000	0.13323700000000	0.00000000000000	-0.07994900000000	0.00000000000000	-9.15061400000000	0.00000000000000	0.00000000000000	-18.86077100000000	0.00000000000000	
10.84495900000000	-6.00035700000000	74.08689900000000	-14.13442600000000	0.32865000000000	0.00000000000000	0.09888400000000	-44.15047100000000	776.63476000000003	-48.26417500000000	0.13256100000000	0.00000000000000	-0.07980300000000	0.00000000000000	-9.87462100000000	0.00000000000000	0.00000000000000	-18.79579200000000	0.00000000000000	
10.84662900000000	-5.79864100000000	81.58755700000000	-14.79209700000000	0.33325200000000	0.00000000000000	0.09963900000000	-44.86079000000000	772.99114599999996	-47.74421300000000	0.13188500000000	0.00000000000000	-0.07965400000000	0.00000000000000	-10.50384000000000	0.00000000000000	0.00000000000000	-18.73223900000000	0.00000000000000	
10.84829100000000	-5.44184700000000	88.95329900000000	-15.28244400000000	0.33749600000000	0.00000000000000	0.10034000000000	-45.58878700000000	769.22181399999999	-47.20372700000000	0.13121100000000	0.00000000000000	-0.07950300000000	0.00000000000000	-11.03545700000000	0.00000000000000	0.00000000000000	-18.67002700000000	0.00000000000000	
10.84996400000000	-4.93847100000000	96.18433899999999	-15.61234800000000	0.34142700000000	0.00000000000000	0.10099500000000	-46.33346300000000	765.32555200000002	-46.64285300000000	0.13053700000000	0.00000000000000	-0.07934800000000	0.00000000000000	-11.47163900000000	0.00000000000000	0.00000000000000	-18.60905500000000	0.00000000000000	
10.85162300000000	-4.30055200000000	103.30044599999999	-15.79425000000000	0.34508100000000	0.00000000000000	0.10160900000000	-47.09370500000000	761.30109000000004	-46.06175400000000	0.12986400000000	0.00000000000000	-0.07919100000000	0.00000000000000	-11.81857800000000	0.00000000000000	0.00000000000000	-18.54920200000000	0.00000000000000	
10.85329700000000	-3.54234600000000	110.33621300000000	-15.84438300000000	0.34849000000000	0.00000000000000	0.10218700000000	-47.86829300000000	757.14711100000000	-45.46061800000000	0.12919200000000	0.00000000000000	-0.07903100000000	0.00000000000000	-12.08536800000000	0.00000000000000	0.00000000000000	-18.49033000000000	0.00000000000000	
10.85495600000000	-2.67905800000000	117.33592600000000	-15.78100400000000	0.35167900000000	0.00000000000000	0.10273300000000	-48.65589500000000	752.86225300000001	-44.83966200000000	0.12852200000000	0.00000000000000	-0.07886800000000	0.00000000000000	-12.28283600000000	0.00000000000000	0.00000000000000	-18.43228400000000	0.00000000000000	
10.85662600000000	-1.72570900000000	124.34852700000000	-15.62276500000000	0.35467100000000	0.00000000000000	0.10325200000000	-49.45507300000000	748.44511499999999	-44.19913200000000	0.12785300000000	0.00000000000000	-0.07870300000000	0.00000000000000	-12.42244000000000	0.00000000000000	0.00000000000000	-18.37489100000000	0.00000000000000	
10.85829200000000	-0.69622700000000	131.42305200000001	-15.38733100000000	0.35748600000000	0.00000000000000	0.10374500000000	-50.26428000000000	743.89426500000002	-43.53930200000000	0.12718700000000	0.00000000000000	-0.07853400000000	0.00000000000000	-12.51529700000000	0.00000000000000	0.00000000000000	-18.31796100000000	0.00000000000000	
10.85996300000000	0.39723200000000	138.60482400000001	-15.09032000000000	0.36014000000000	0.00000000000000	0.10421500000000	-51.08187100000000	739.20825000000002	-42.86048000000000	0.12652300000000	0.00000000000000	-0.07836400000000	0.00000000000000	-12.57141200000000	0.00000000000000	0.00000000000000	-18.26128900000000	0.00000000000000	
